# xmcd
#
# Track frame offsets:
#	150
#	13931
#	29181
#	42349
#	60257
#	77913
#	93413
#	111921
#	128339
#
# Disc length: 1947 seconds
#
# Revision: 0
# Processed by: cddbd v1.4PL0 Copyright (c) Steve Scherf et al.
# Submitted via: dBpowerAMP V4.0
#
DISCID=70079909
DTITLE=Collin Raye - Extremes
DYEAR=1900
DGENRE=Country
TTITLE0=That's My Story
TTITLE1=Man Of My Word
TTITLE2=My Kind Of Girl
TTITLE3=Little Rock
TTITLE4=A Bible And A Bus Ticket Home
TTITLE5=Nothin' A Little Love Won't Cure
TTITLE6=If I Were You
TTITLE7=To The Border And Beyond
TTITLE8=Angel Of No Mercy
EXTD=
EXTT0=
EXTT1=
EXTT2=
EXTT3=
EXTT4=
EXTT5=
EXTT6=
EXTT7=
EXTT8=
PLAYORDER=
